<?xml version="1.0" encoding="UTF-8"?><svg version="1.1" viewBox="0 0 512 512" xmlns="http://www.w3.org/2000/svg" xmlns:xlink="http://www.w3.org/1999/xlink"><!--Generated by IJSVG (https://github.com/iconjar/IJSVG)--><path d="M278.6,256l68.2,-68.2c6.2,-6.2 6.2,-16.4 0,-22.6c-6.2,-6.2 -16.4,-6.2 -22.6,0l-68.2,68.2l-68.2,-68.2c-6.2,-6.2 -16.4,-6.2 -22.6,0c-3.1,3.1 -4.7,7.2 -4.7,11.3c0,4.1 1.6,8.2 4.7,11.3l68.2,68.2l-68.2,68.2c-3.1,3.1 -4.7,7.2 -4.7,11.3c0,4.1 1.6,8.2 4.7,11.3c6.2,6.2 16.4,6.2 22.6,0l68.2,-68.2l68.2,68.2c6.2,6.2 16.4,6.2 22.6,0c6.2,-6.2 6.2,-16.4 0,-22.6l-68.2,-68.2Z" fill="#8C8C8C"></path></svg>