<?xml version="1.0" encoding="UTF-8"?><svg version="1.1" viewBox="0 0 24 24" xmlns="http://www.w3.org/2000/svg" xmlns:xlink="http://www.w3.org/1999/xlink"><!--Generated by IJSVG (https://github.com/iconjar/IJSVG)--><path d="M0,0h24v24h-24Z" fill="none"></path><path fill="#FFF" d="M18,8h2l-4.37114e-08,1.77636e-15c0.552285,-2.41411e-08 1,0.447715 1,1v12v0c0,0.552285 -0.447715,1 -1,1h-16h-4.37114e-08c-0.552285,-2.41411e-08 -1,-0.447715 -1,-1c0,0 0,-3.55271e-15 0,-3.55271e-15v-12l1.24345e-14,1.50996e-07c-8.33927e-08,-0.552285 0.447715,-1 1,-1h2v-1l6.75016e-14,9.05975e-07c-5.00356e-07,-3.31371 2.68629,-6 6,-6c3.31371,-5.00356e-07 6,2.68629 6,6c0,0 0,5.32907e-15 0,5.32907e-15v1Zm-13,2v10h14v-10h-14Zm6,4h2v2h-2v-2Zm-4,0h2v2h-2v-2Zm8,0h2v2h-2v-2Zm1,-6v-1v0c0,-2.20914 -1.79086,-4 -4,-4c-2.20914,4.44089e-16 -4,1.79086 -4,4v1h8Z"></path></svg>