<?xml version="1.0" encoding="UTF-8"?><svg width="128" height="128" version="1.1" viewBox="0 0 128 128" xmlns="http://www.w3.org/2000/svg" xmlns:xlink="http://www.w3.org/1999/xlink"><!--Generated by IJSVG (https://github.com/iconjar/IJSVG)--><g transform="scale(4)"><path fill="#FFF" d="M15.84,1.653v0l-5.6,5.6c-3.413,3.413 -3.52,8.853 -0.373,12.427l-4.533,4.533l-4.533,-4.533l-0.8,0.853l9.813,9.813l0.747,-0.747l-4.533,-4.533l4.533,-4.533c3.573,3.147 9.013,3.04 12.427,-0.373l2.987,-2.987h0.107v-0.107l2.56,-2.56l-12.8,-12.853Zm6.4,17.76c-3.093,3.093 -8.213,3.093 -11.307,0c-0.693,-0.693 -1.173,-1.44 -1.6,-2.24h15.147l-2.24,2.24Zm3.307,-3.36h-16.587c-0.853,-2.72 -0.16,-5.813 1.973,-8l4.907,-4.853l11.307,11.307l-1.6,1.547Z"></path></g></svg>